<?xml version="1.0" encoding="UTF-8"?>
<!DOCTYPE svg PUBLIC "-//W3C//DTD SVG 1.1//EN" "http://www.w3.org/Graphics/SVG/1.1/DTD/svg11.dtd">
<!-- Creator: CorelDRAW 2020 (64-Bit) -->
<svg xmlns="http://www.w3.org/2000/svg" xml:space="preserve" width="7.1154mm" height="10.6508mm" version="1.1" style="shape-rendering:geometricPrecision; text-rendering:geometricPrecision; image-rendering:optimizeQuality; fill-rule:evenodd; clip-rule:evenodd"
viewBox="0 0 109.18 163.42"
 xmlns:xlink="http://www.w3.org/1999/xlink"
 xmlns:xodm="http://www.corel.com/coreldraw/odm/2003">
 <defs>
  <style type="text/css">
   <![CDATA[
    .str0 {stroke:#F2A1B2;stroke-width:3.84;stroke-miterlimit:22.9256}
    .fil1 {fill:none}
    .fil0 {fill:#F2A1B2}
   ]]>
  </style>
 </defs>
 <g id="Слой_x0020_1">
  <metadata id="CorelCorpID_0Corel-Layer"/>
  <g id="_1963689078512">
   <path class="fil0" d="M79.07 93.94c2.32,-0.05 4.1,-0.76 6.84,-0.76 7.44,0 13.53,3.45 17.74,8.46 0.7,0.83 1.24,1.74 1.9,2.65 3.64,4.98 3.86,10.83 3.51,17.35 -0.1,1.75 -0.98,5.98 -1.81,6.94 -1.64,1.9 -5.02,0.62 -5.02,-1.61 0,-3.53 1.14,-5.96 1.14,-9.49 0,-9.67 -7.2,-18.23 -17.08,-18.23 -4.05,0 -5.35,0.59 -8.88,1.79 -5.05,1.73 -4.41,-4.41 -4.41,-7.49 -0.73,0 -1.6,0.15 -2.01,0.17l-3.31 -0.17c0,10.92 -2.55,7.72 -7.51,6.37 -7.2,-1.97 -15.13,0.54 -19.51,6.48 -9.21,12.48 1.02,31.97 11.83,40.31 0.99,0.76 1.91,1.51 2.95,2.36 2.74,2.26 12.74,9.17 15.72,8.35 6.39,-1.78 18.15,-11.42 22.81,-16.7 0.97,-1.1 3.48,-5.03 4.85,-5.03 1.33,0 3.42,0.5 3.42,2.28 0,2.99 -3.98,6.83 -6.17,9.02 -2.37,2.37 -4.48,4.5 -7.17,6.5 -2.72,2.03 -5.37,4.03 -8.32,5.73 -4.61,2.66 -7.53,4.06 -10.27,4.19l-0.84 0c-3.53,-0.17 -7.02,-2.48 -13.79,-6.99 -6.44,-4.29 -8.83,-6.96 -13.73,-12.09 -2.6,-2.73 -4.57,-5.78 -6.3,-9.27 -2.87,-5.81 -4.43,-11.89 -4.43,-18.73 0,-18.4 20.94,-26.55 30.38,-22.02 -0.53,-14.96 3.73,-5.45 8.62,-5.11 4.66,0.32 8.58,-10.37 8.84,4.73z"/>
   <circle class="fil1 str0" cx="27.57" cy="27.57" r="25.66"/>
   <path class="fil1 str0" d="M60.55 56.35c-3.47,8.12 -12.86,11.91 -20.96,8.47 -8.1,-3.44 -11.85,-12.81 -8.38,-20.92 3.47,-8.12 12.86,-11.91 20.96,-8.47"/>
   <circle class="fil1 str0" cx="70.26" cy="82.78" r="8.22"/>
   <line class="fil1 str0" x1="51.78" y1="64.93" x2="64.35" y2= "77.07" />
  </g>
 </g>
</svg>
