<svg xmlns="http://www.w3.org/2000/svg" width="21" height="21" fill="none"><path d="M10.5 0C7.89 0 5.374.924 3.442 2.59 1.509 4.259.3 6.55.049 9.018c-.251 2.469.474 4.938 2.034 6.926 1.56 1.988 3.844 3.352 6.405 3.827.176.367.46.678.816.896.357.218.772.334 1.196.334.424 0 .84-.116 1.196-.334.357-.218.64-.529.816-.896 2.561-.475 4.845-1.84 6.405-3.827 1.56-1.988 2.285-4.457 2.034-6.926-.25-2.468-1.46-4.76-3.393-6.426C15.626.924 13.11 0 10.5 0ZM9.395 18.905a1.024 1.024 0 0 1 .324-.803c.207-.198.488-.308.781-.308.293 0 .574.11.782.307a1.025 1.025 0 0 1 .323.804c0 .278-.116.546-.323.743a1.135 1.135 0 0 1-.782.307c-.293 0-.574-.11-.782-.307a1.025 1.025 0 0 1-.323-.743Zm3.3-.246a2.07 2.07 0 0 0-.727-1.322 2.278 2.278 0 0 0-1.468-.53c-.541 0-1.063.188-1.468.53a2.07 2.07 0 0 0-.727 1.322c-2.237-.51-4.198-1.783-5.513-3.577A8.59 8.59 0 0 1 1.17 8.93c.271-2.17 1.37-4.172 3.09-5.624C5.98 1.854 8.2 1.052 10.5 1.052c2.3 0 4.52.802 6.24 2.253 1.72 1.452 2.819 3.453 3.09 5.624a8.59 8.59 0 0 1-1.622 6.153c-1.315 1.794-3.276 3.066-5.513 3.577Z" fill="#F2A1B2"/></svg>