<svg width="19" height="19" viewBox="0 0 19 19" fill="none" xmlns="http://www.w3.org/2000/svg">
<path d="M9.5 16C13.0899 16 16 13.0899 16 9.5C16 5.91015 13.0899 3 9.5 3C5.91015 3 3 5.91015 3 9.5C3 13.0899 5.91015 16 9.5 16Z" fill="#27251F"/>
<path d="M9.5 0C4.25171 0 0 4.25232 0 9.5C0 14.7477 4.25232 19 9.5 19C14.7483 19 19 14.7477 19 9.5C19 4.25232 14.7477 0 9.5 0ZM14.166 6.50842L12.6068 13.8559C12.4916 14.3769 12.1815 14.5031 11.7487 14.258L9.37374 12.5075L8.22823 13.6107C8.10197 13.737 7.99471 13.8443 7.74955 13.8443L7.9181 11.427L12.3194 7.45045C12.5112 7.2819 12.2771 7.18629 12.0239 7.35484L6.58442 10.7791L4.24006 10.0473C3.73074 9.88674 3.7191 9.538 4.34732 9.29284L13.5065 5.76068C13.9319 5.60745 14.3033 5.86426 14.1654 6.50781L14.166 6.50842Z" fill="#B7B8B9"/>
</svg>
