<svg width="140" height="28" fill="none" xmlns="http://www.w3.org/2000/svg"><path d="M87.845 4.862h.583l.03-.029-.495-4.804-.03-.029h-.148l-.03.029-.518 4.804.03.029h.578zM90.66 5.17l.03-.028.844-4.306-.03-.023-.148-.029-.024.029L89.47 4.89l.03.029 1.16.251zM89.79 7.014a.705.705 0 00.378-.115.666.666 0 00.248-.297.638.638 0 00-.15-.715.712.712 0 00-.744-.145.682.682 0 00-.308.239.643.643 0 00-.069.62.665.665 0 00.378.363c.085.034.175.05.267.05zM87.845 6.82a.705.705 0 00.377-.116.666.666 0 00.25-.297.638.638 0 00-.152-.715.712.712 0 00-.744-.145.682.682 0 00-.308.239.643.643 0 00-.068.62.665.665 0 00.378.364c.084.033.175.05.267.05zM85.03 5.17l1.16-.251.03-.029L84.363.813l-.03-.029-.148.029-.03.023L85 5.142l.03.028zM85.202 6.344a.644.644 0 00.203.475.694.694 0 00.494.195.705.705 0 00.377-.115.666.666 0 00.249-.297.638.638 0 00-.15-.715.712.712 0 00-.744-.145.682.682 0 00-.309.239.643.643 0 00-.12.363zM5.951 8.217H.03L0 8.245s.143 1.369.143 3.74v12.018C.143 26.38 0 27.748 0 27.748l.03.029h3.892l.03-.029s-.149-1.369-.149-3.745v-3.521l.03-.047c.523.056 1.713.114 2.118.114 4.01 0 7.439-2.348 7.439-6.316 0-3.84-3.458-6.016-7.439-6.016zM5.78 17.35a15.353 15.353 0 01-1.976-.138V11.43H6.07c2.005 0 3.6.78 3.6 2.823S8.279 17.35 5.78 17.35zM24.502 9.809a10.463 10.463 0 01-.578-1.564l-.03-.028h-3.15l-.03.028a8.482 8.482 0 01-.553 1.564l-6.866 15.853a9.868 9.868 0 01-1.165 2.067v.029h4.01l.03-.029c.106-.61.3-1.204.578-1.763l1.25-2.99h8.83l1.324 3.01c.434 1.144.696 1.762.696 1.762l.03.029h4.015v-.029a15.202 15.202 0 01-1.16-2.086L24.502 9.809zm-5.142 9.98l2.865-6.906h.03l3.111 6.9-6.006.005zM52.956 8.245l-.03-.028H49.39l-.03.028s.144 1.369.144 3.74v9.837h-.03L38.494 8.217h-3.891l-.03.028c.345.588.571 1.233.667 1.9v13.858c0 2.377-.143 3.745-.143 3.745l.03.029h3.54l.03-.029s-.143-1.369-.143-3.745V13.972l11.039 13.805h3.309l.03-.029s-.144-1.369-.144-3.745V11.985c.025-2.371.168-3.74.168-3.74zM63.99 8.217h-6.796l-.03.028s.148 1.369.148 3.74v12.018c0 2.377-.148 3.745-.148 3.745l.03.029h2.074c1.373 0 2.904.166 4.643.166 6.248 0 10.658-4.248 10.658-9.923 0-5.674-4.307-9.803-10.58-9.803zm-.232 16.495a10.929 10.929 0 01-2.41-.172c-.322-.08-.376-.194-.376-.727V11.405h2.702c4.38 0 7.2 2.852 7.2 6.653 0 3.802-2.82 6.654-7.116 6.654zM87.844 7.936a10.63 10.63 0 00-4.014.723 10.313 10.313 0 00-3.404 2.171 9.866 9.866 0 00-2.256 3.276 9.556 9.556 0 00-.752 3.862c0 2.66 1.099 5.212 3.054 7.094C82.427 26.943 85.079 28 87.844 28c2.766 0 5.417-1.057 7.373-2.938 1.955-1.882 3.053-4.433 3.053-7.094a9.52 9.52 0 00-.74-3.869 9.826 9.826 0 00-2.255-3.28 10.275 10.275 0 00-3.41-2.17 10.59 10.59 0 00-4.02-.713zm0 16.847c-3.773 0-6.707-2.96-6.707-6.815 0-3.854 2.934-6.82 6.707-6.82 3.774 0 6.737 2.961 6.737 6.82 0 3.859-2.934 6.815-6.737 6.815zM112.762 21.123a3.638 3.638 0 00-2-1.591v-.048c2.118-.447 4.094-2.823 4.094-5.199 0-3.24-2.588-6.087-6.564-6.087h-6.505l-.029.028s.143 1.369.143 3.74v12.037c0 2.376-.143 3.745-.143 3.745l.029.029h3.907l.025-.029s-.143-1.369-.143-3.745V20.26c1.946 0 2.701.36 3.398 1.425l1.659 2.552a26.379 26.379 0 011.946 3.493l.03.029h4.647v-.029a33.836 33.836 0 01-2.519-3.493l-1.975-3.113zm-5.374-3.968a10.763 10.763 0 01-1.827-.109v-5.64h2.237c2.178 0 3.339 1.368 3.339 2.931-.01 1.478-1.19 2.818-3.749 2.818zM138.839 25.662L131.608 9.79a10.448 10.448 0 01-.577-1.564l-.03-.028h-3.166l-.03.028a8.408 8.408 0 01-.553 1.563l-6.85 15.873a9.888 9.888 0 01-1.166 2.067v.029h4.011l.029-.029c.107-.61.301-1.204.578-1.763l1.25-2.99h8.831l1.333 2.99c.435 1.145.697 1.763.697 1.763l.029.029H140v-.029a15.27 15.27 0 01-1.161-2.067zm-12.372-5.879l2.879-6.9h.025l3.112 6.9h-6.016z" fill="#000"/></svg>