<svg width="110" height="24" fill="none" xmlns="http://www.w3.org/2000/svg"><path d="M68.395 4.807h.454l.023-.023-.385-3.947-.023-.023h-.115l-.023.023-.404 3.947.023.023h.45zM70.587 5.061l.023-.023.657-3.537-.023-.02-.115-.023-.02.023-1.449 3.35.023.023.904.207zM69.91 6.576a.53.53 0 00.487-.339.55.55 0 00-.117-.587.532.532 0 00-.913.375.555.555 0 00.158.39.537.537 0 00.384.16zM68.393 6.416a.53.53 0 00.487-.339.55.55 0 00-.117-.588.532.532 0 00-.912.376.555.555 0 00.157.39.537.537 0 00.385.16zM66.2 5.061l.904-.207.023-.023-1.446-3.35-.023-.023-.115.023-.024.02.658 3.537.023.023zM66.336 6.025a.551.551 0 00.334.51.53.53 0 00.696-.298.55.55 0 00-.118-.587.532.532 0 00-.579-.12.536.536 0 00-.333.495zM4.634 7.563H.024L0 7.587s.112 1.124.112 3.072v9.872c0 1.952-.112 3.076-.112 3.076l.023.024h3.03l.023-.024s-.115-1.124-.115-3.076V17.64l.023-.04c.408.047 1.334.094 1.65.094 3.122 0 5.79-1.928 5.79-5.188 0-3.154-2.691-4.942-5.79-4.942zm-.135 7.503a11.344 11.344 0 01-1.538-.113v-4.75h1.765c1.561 0 2.803.64 2.803 2.318 0 1.679-1.084 2.545-3.03 2.545zM19.078 8.871a8.891 8.891 0 01-.45-1.284l-.023-.024h-2.453l-.024.024a7.216 7.216 0 01-.43 1.284l-5.345 13.023a8.24 8.24 0 01-.908 1.698v.023h3.123l.023-.023c.083-.502.234-.99.45-1.449l.973-2.455h6.875l1.03 2.471c.339.94.543 1.448.543 1.448l.023.024h3.126v-.024a12.7 12.7 0 01-.904-1.713L19.078 8.87zm-4.003 8.198l2.23-5.672h.023l2.423 5.668-4.676.004zM41.23 7.587l-.024-.024h-2.753l-.023.024s.111 1.124.111 3.072v8.08h-.023L29.97 7.563h-3.03l-.023.024c.268.483.444 1.012.52 1.561v11.383c0 1.952-.112 3.076-.112 3.076l.023.024h2.757l.023-.024s-.112-1.124-.112-3.076v-8.24l8.595 11.34h2.576l.023-.024s-.111-1.124-.111-3.076V10.66c.019-1.948.13-3.072.13-3.072zM49.822 7.563h-5.291l-.023.024s.115 1.124.115 3.072v9.872c0 1.952-.115 3.076-.115 3.076l.023.024h1.615c1.069 0 2.261.136 3.614.136 4.865 0 8.299-3.49 8.299-8.15 0-4.661-3.353-8.054-8.237-8.054zm-.18 13.55a8.074 8.074 0 01-1.877-.14c-.25-.067-.292-.16-.292-.598V10.183h2.103c3.41 0 5.606 2.342 5.606 5.465 0 3.123-2.195 5.465-5.54 5.465zM68.392 7.333a7.893 7.893 0 00-3.126.594 7.99 7.99 0 00-2.65 1.783 8.129 8.129 0 00-1.757 2.69 8.228 8.228 0 00-.585 3.173c0 2.186.856 4.282 2.378 5.827a8.057 8.057 0 005.74 2.414 8.057 8.057 0 005.74-2.414 8.304 8.304 0 002.377-5.826 8.197 8.197 0 00-.576-3.178A8.1 8.1 0 0074.177 9.7a7.96 7.96 0 00-2.655-1.783 7.862 7.862 0 00-3.13-.585zm0 13.838c-2.938 0-5.222-2.432-5.222-5.598 0-3.165 2.284-5.601 5.222-5.601 2.938 0 5.245 2.432 5.245 5.601 0 3.17-2.284 5.598-5.245 5.598zM87.794 18.166a2.864 2.864 0 00-1.557-1.308v-.04c1.65-.366 3.187-2.318 3.187-4.27 0-2.662-2.015-5-5.11-5H79.25l-.023.023s.111 1.125.111 3.072v9.888c0 1.952-.111 3.076-.111 3.076l.023.024h3.041l.02-.024s-.112-1.124-.112-3.076v-3.076c1.515 0 2.103.297 2.646 1.171l1.292 2.096c.574.918 1.08 1.877 1.515 2.87l.023.023h3.618v-.023a27.706 27.706 0 01-1.96-2.87l-1.539-2.556zm-4.184-3.26a7.96 7.96 0 01-1.422-.09v-4.633h1.741c1.696 0 2.6 1.124 2.6 2.408-.008 1.214-.927 2.315-2.919 2.315zM108.098 21.894l-5.629-13.038a8.82 8.82 0 01-.45-1.285l-.023-.023h-2.465l-.023.023a7.225 7.225 0 01-.431 1.285l-5.334 13.038c-.235.6-.54 1.17-.907 1.698v.023h3.122l.023-.023c.083-.502.235-.99.45-1.449l.973-2.455h6.876l1.038 2.455c.338.941.542 1.449.542 1.449l.023.023h3.119v-.023a12.617 12.617 0 01-.904-1.698zm-9.632-4.83l2.241-5.667h.02l2.422 5.668h-4.683z" fill="#B7B8B9"/></svg>